<?xml version="1.0" encoding="UTF-8" standalone="no"?>
<svg
   xmlns:osb="http://www.openswatchbook.org/uri/2009/osb"
   xmlns:dc="http://purl.org/dc/elements/1.1/"
   xmlns:cc="http://creativecommons.org/ns#"
   xmlns:rdf="http://www.w3.org/1999/02/22-rdf-syntax-ns#"
   xmlns:svg="http://www.w3.org/2000/svg"
   xmlns="http://www.w3.org/2000/svg"
   xmlns:sodipodi="http://sodipodi.sourceforge.net/DTD/sodipodi-0.dtd"
   xmlns:inkscape="http://www.inkscape.org/namespaces/inkscape"
   width="210mm"
   height="297mm"
   viewBox="0 0 210 297"
   version="1.1"
   id="svg8"
   inkscape:version="1.0.1 (c497b03c, 2020-09-10)"
   sodipodi:docname="logo_blastomussa.svg"
   inkscape:export-filename="/Users/joecourtney/Desktop/logo_blastomussa.png"
   inkscape:export-xdpi="98.340668"
   inkscape:export-ydpi="98.340668">
  <defs
     id="defs2">
    <linearGradient
       id="linearGradient3110"
       osb:paint="solid">
      <stop
         style="stop-color:#000000;stop-opacity:1;"
         offset="0"
         id="stop3108" />
    </linearGradient>
    <rect
       x="5.2916665"
       y="122.50208"
       width="270.93333"
       height="41.274997"
       id="rect23" />
  </defs>
  <sodipodi:namedview
     id="base"
     pagecolor="#ffffff"
     bordercolor="#666666"
     borderopacity="1.0"
     inkscape:pageopacity="0.0"
     inkscape:pageshadow="2"
     inkscape:zoom="0.82177263"
     inkscape:cx="417.52641"
     inkscape:cy="597.25602"
     inkscape:document-units="mm"
     inkscape:current-layer="layer1"
     inkscape:document-rotation="0"
     showgrid="false"
     showguides="true"
     inkscape:guide-bbox="true"
     inkscape:snap-center="false"
     inkscape:snap-global="true"
     inkscape:window-width="1280"
     inkscape:window-height="709"
     inkscape:window-x="0"
     inkscape:window-y="23"
     inkscape:window-maximized="0" />
  <metadata
     id="metadata5">
    <rdf:RDF>
      <cc:Work
         rdf:about="">
        <dc:format>image/svg+xml</dc:format>
        <dc:type
           rdf:resource="http://purl.org/dc/dcmitype/StillImage" />
        <dc:title></dc:title>
      </cc:Work>
    </rdf:RDF>
  </metadata>
  <g
     inkscape:label="Layer 1"
     inkscape:groupmode="layer"
     id="layer1">
    <path
       id="path3122"
       style="fill:#000000;fill-opacity:1;stroke:none;stroke-width:0.376924;stroke-linecap:butt;stroke-linejoin:miter;stroke-miterlimit:4;stroke-dasharray:none;stroke-dashoffset:0;stroke-opacity:1"
       inkscape:transform-center-x="0.052797549"
       inkscape:transform-center-y="-0.8662757"
       d="m 110.49106,142.90494 -1.99641,6.72338 -7.01325,0.0708 5.77746,3.97642 -2.1,6.6918 5.56715,-4.26592 5.71549,4.06506 -2.33687,-6.61285 5.63235,-4.17954 -7.01134,0.17896 z m 0.0876,4.91863 1.08935,3.24104 -1.00609,1.43784 4.42419,-1.52505 -2.74577,2.03756 -1.67842,-0.51251 2.81755,3.73632 -2.78621,-1.98181 -0.0314,-1.75451 -2.68272,3.83418 1.02368,-3.26234 1.65904,-0.57184 -4.47552,-1.36666 3.41894,-0.0344 1.05658,1.40112 z" />
    <path
       id="path935"
       style="color:#000000;font-style:normal;font-variant:normal;font-weight:normal;font-stretch:normal;font-size:medium;line-height:normal;font-family:sans-serif;font-variant-ligatures:normal;font-variant-position:normal;font-variant-caps:normal;font-variant-numeric:normal;font-variant-alternates:normal;font-variant-east-asian:normal;font-feature-settings:normal;font-variation-settings:normal;text-indent:0;text-align:start;text-decoration:none;text-decoration-line:none;text-decoration-style:solid;text-decoration-color:#000000;letter-spacing:normal;word-spacing:normal;text-transform:none;writing-mode:lr-tb;direction:ltr;text-orientation:mixed;dominant-baseline:auto;baseline-shift:baseline;text-anchor:start;white-space:normal;shape-padding:0;shape-margin:0;inline-size:0;clip-rule:nonzero;display:inline;overflow:visible;visibility:visible;opacity:1;isolation:auto;mix-blend-mode:normal;color-interpolation:sRGB;color-interpolation-filters:linearRGB;solid-color:#000000;solid-opacity:1;vector-effect:none;fill:#000000;fill-opacity:1;fill-rule:nonzero;stroke:none;stroke-width:44.99980221;stroke-linecap:butt;stroke-linejoin:miter;stroke-miterlimit:4.0999999;stroke-dasharray:44.99980221,359.99841763;stroke-dashoffset:0;stroke-opacity:1;color-rendering:auto;image-rendering:auto;shape-rendering:auto;text-rendering:auto;enable-background:accumulate;stop-color:#000000;stop-opacity:1"
       d="M 206.93555 567 C 206.88655 614.10745 222.45074 661.50064 254.49805 700.69336 C 328.16711 790.78804 461.59868 804.17102 551.69336 730.50195 C 602.59577 688.87981 629.0033 628.18184 629.06641 567 L 606.70117 582 L 584.33789 567 C 584.33817 615.07779 563.4901 662.72875 523.20898 695.66602 C 451.94132 753.94051 347.60849 743.47667 289.33398 672.20898 C 263.99718 641.22297 251.6618 603.98479 251.66016 567 L 229.29688 582 L 206.93555 567 z M 255.79688 662.375 A 6.8586782 6.8586782 0 0 1 262.56641 668.39258 A 6.8586782 6.8586782 0 0 1 256.59766 676.03906 A 6.8586782 6.8586782 0 0 1 248.95117 670.07227 A 6.8586782 6.8586782 0 0 1 254.91797 662.42578 A 6.8586782 6.8586782 0 0 1 255.79688 662.375 z M 580.28125 662.375 A 6.8586782 6.8586782 0 0 1 587.04883 668.39258 A 6.8586782 6.8586782 0 0 1 581.08203 676.03906 A 6.8586782 6.8586782 0 0 1 573.43555 670.07227 A 6.8586782 6.8586782 0 0 1 579.40234 662.42578 A 6.8586782 6.8586782 0 0 1 580.28125 662.375 z M 281.13281 682.54102 L 283.98242 685.83789 L 264.38867 702.77344 L 261.53906 699.47656 L 281.13281 682.54102 z M 558.90234 688.64453 C 559.07597 688.63704 559.25198 688.6388 559.42969 688.64844 C 560.14052 688.68674 560.85717 688.86318 561.57812 689.17773 C 562.28956 689.48332 562.9501 689.91907 563.56055 690.48633 L 574.0625 700.24609 L 571.36328 703.15039 L 561.36133 693.85742 C 560.87485 693.40537 560.3985 693.06804 559.92969 692.8457 C 559.45133 692.6144 558.98986 692.48721 558.54688 692.4668 C 558.10389 692.44664 557.6868 692.52278 557.29688 692.69336 C 556.9063 692.8458 556.55149 693.09404 556.23242 693.4375 C 555.94878 693.74271 555.70048 694.11575 555.48633 694.55664 C 555.27215 694.99751 555.09135 695.4876 554.94531 696.02734 C 554.79867 696.54867 554.69164 697.10504 554.62109 697.69727 C 554.55054 698.28949 554.52155 698.89493 554.53516 699.51172 L 565.38086 709.58789 L 562.66797 712.50781 L 548.56055 699.39844 L 549.68555 696.55078 L 550.45703 695.7207 L 553.41797 698.47266 C 553.25041 696.6638 553.3677 695.05625 553.76758 693.65039 C 554.15793 692.23564 554.80972 691.03714 555.72266 690.05469 C 556.20127 689.53961 556.75788 689.1694 557.39453 688.94336 C 557.87865 688.76667 558.38147 688.66702 558.90234 688.64453 z M 288.06445 690.81836 L 305.02539 706.50781 L 303.88477 707.74219 L 297.00195 701.375 L 280.55664 719.1543 L 277.35938 716.19531 L 293.80469 698.41797 L 286.92383 692.05078 L 288.06445 690.81836 z M 540.66992 708.11133 C 540.9936 708.10419 541.31531 708.11169 541.63672 708.13672 C 542.92234 708.23675 544.14504 708.59024 545.30273 709.19531 C 546.46237 709.782 547.47134 710.60804 548.33008 711.67188 C 549.27879 712.84718 549.96757 714.12306 550.39453 715.50195 C 550.82346 716.86253 550.98647 718.22671 550.88672 719.5957 C 550.77888 720.95457 550.40855 722.26759 549.77344 723.5332 C 549.14037 724.78047 548.23036 725.88297 547.04492 726.83984 C 545.84936 727.80491 544.5825 728.48465 543.24414 728.87891 C 541.90576 729.27316 540.58517 729.40945 539.2832 729.28906 C 537.97304 729.15854 536.72715 728.78504 535.54297 728.16797 C 534.36073 727.53258 533.32661 726.66844 532.44336 725.57422 C 531.51919 724.4293 530.85556 723.19152 530.45117 721.86133 C 530.04873 720.51284 529.90891 719.16869 530.0332 717.83008 C 530.15742 716.49147 530.54936 715.20395 531.20898 713.96875 C 531.86037 712.72342 532.78493 711.61936 533.98047 710.6543 C 535.1659 709.69742 536.41469 709.0157 537.72656 708.60938 C 538.71808 708.29847 539.69888 708.13273 540.66992 708.11133 z M 537.99609 710.9375 C 537.73811 710.94183 537.4793 710.96274 537.2207 711 C 536.17811 711.13883 535.15541 711.61228 534.15234 712.42188 C 533.63563 712.83896 533.25661 713.39723 533.01562 714.09375 C 532.76643 714.78014 532.66275 715.53224 532.70508 716.35156 C 532.75749 717.16272 532.95551 718.0077 533.29688 718.88672 C 533.6301 719.75561 534.11051 720.58118 534.74023 721.36133 C 535.65624 722.49612 536.63151 723.46472 537.66602 724.26953 C 538.71065 725.06615 539.75952 725.64988 540.8125 726.02148 C 541.87558 726.3849 542.91359 726.51975 543.92383 726.42383 C 544.93604 726.30969 545.86768 725.90777 546.71875 725.2207 C 547.32665 724.72999 547.75669 724.12341 548.00977 723.40039 C 548.26282 722.67739 548.35938 721.90528 548.29883 721.08398 C 548.23004 720.25259 548.01394 719.40563 547.65234 718.54297 C 547.29067 717.6803 546.79576 716.8583 546.16602 716.07812 C 545.25822 714.95349 544.31005 713.97778 543.32422 713.15039 C 542.33842 712.323 541.33312 711.72158 540.30859 711.34375 C 539.54022 711.06038 538.77004 710.92451 537.99609 710.9375 z M 512.92188 714.60156 C 513.06718 714.60597 513.2117 714.62557 513.35547 714.6582 C 513.64302 714.72246 513.9088 714.8378 514.1543 715.00586 C 514.39971 715.17392 514.60585 715.39054 514.77344 715.6543 C 514.941 715.91811 515.04808 716.19659 515.0957 716.49023 C 515.14333 716.7839 515.13557 717.07378 515.07031 717.36133 C 515.00606 717.64887 514.88877 717.91466 514.7207 718.16016 C 514.55264 718.40557 514.33798 718.61364 514.07422 718.78125 C 513.81041 718.94881 513.53193 719.05589 513.23828 719.10352 C 512.94464 719.15114 512.65278 719.14143 512.36523 719.07617 C 512.07769 719.01192 511.81192 718.89658 511.56641 718.72852 C 511.32099 718.56045 511.11485 718.34384 510.94727 718.08008 C 510.77971 717.81627 510.67262 717.53778 510.625 717.24414 C 510.57738 716.9505 510.58513 716.66059 510.65039 716.37305 C 510.71464 716.0855 510.82998 715.81778 510.99805 715.57227 C 511.16611 715.32685 511.38272 715.12071 511.64648 714.95312 C 511.9103 714.78557 512.18878 714.67848 512.48242 714.63086 C 512.62926 714.60705 512.77657 714.59715 512.92188 714.60156 z M 322.87305 720.50586 C 324.115 720.51342 325.36981 720.6932 326.63867 721.04492 C 327.91401 721.38609 329.1779 721.9157 330.43164 722.63477 C 331.62891 723.32143 332.63768 724.1174 333.45508 725.02148 C 334.29024 725.92076 334.96821 726.87123 335.48828 727.875 C 336.01965 728.88522 336.40626 729.92458 336.64844 730.99414 C 336.90839 732.05883 337.05296 733.10264 337.08203 734.125 L 334.81641 734.26758 C 334.92188 731.9114 334.63128 729.98158 333.94727 728.47852 C 333.26973 726.96416 332.17564 725.77233 330.66211 724.9043 C 329.36319 724.15933 328.0129 723.70075 326.61133 723.52734 C 325.20976 723.35399 323.83288 723.46429 322.48047 723.85938 C 321.13936 724.26104 319.86161 724.95492 318.65039 725.94141 C 317.45732 726.92277 316.40673 728.20455 315.5 729.78516 C 315.5 729.78516 315.5 729.78711 315.5 729.78711 C 314.60007 731.3566 314.02779 732.90437 313.7832 734.42969 C 313.54502 735.94422 313.58834 737.37225 313.91406 738.71484 C 314.25757 740.05265 314.86071 741.27779 315.72461 742.38867 C 316.59499 743.48829 317.69216 744.41591 319.01367 745.17383 C 319.80432 745.62727 320.65342 745.91319 321.5625 746.0293 C 322.47158 746.14545 323.37561 746.13852 324.27539 746.00977 C 325.19294 745.87547 326.07508 745.64513 326.92188 745.32031 C 327.77514 744.98411 328.54168 744.59175 329.2207 744.14062 L 330.23047 746.07031 C 329.33335 746.56147 328.36814 746.97499 327.33398 747.3125 C 326.30631 747.63875 325.21904 747.83372 324.07227 747.89648 C 322.94327 747.95444 321.76307 747.84092 320.53125 747.55469 C 319.31073 747.27498 318.05716 746.76584 316.76953 746.02734 C 314.90586 744.95847 313.38924 743.67542 312.2207 742.17969 C 311.06346 740.6904 310.24687 739.10353 309.77148 737.41992 C 309.2961 735.73629 309.16389 734.01693 309.375 732.26172 C 309.60389 730.50169 310.17121 728.83128 311.07812 727.25 C 311.68058 726.19957 312.403 725.25452 313.24414 724.41602 C 314.09176 723.56623 315.01831 722.85358 316.02539 722.27539 C 317.05024 721.69236 318.13834 721.24907 319.28711 720.94727 C 320.45365 720.64065 321.64887 720.49424 322.87305 720.50586 z M 518.44727 721.94922 L 529.36523 739.14453 L 526.03516 741.25977 L 515.72266 725.01953 L 517.47266 722.56641 L 518.44727 721.94922 z M 500.0332 725.24805 L 503.13672 731.29492 L 507.09766 729.26172 L 507.875 730.77344 L 503.91211 732.80664 L 510.34375 745.33594 C 510.48057 745.60237 510.65371 745.82761 510.86523 746.01172 C 511.08848 746.18986 511.32684 746.32353 511.57812 746.41406 C 511.84108 746.49872 512.11326 746.5344 512.39844 746.51953 C 512.67769 746.49333 512.95638 746.40824 513.23438 746.26562 C 513.62825 746.06355 513.93689 745.78146 514.16016 745.41797 C 514.3834 745.05455 514.54403 744.66446 514.63867 744.25 L 515.82812 744.38672 C 515.76387 745.4589 515.46413 746.43136 514.93164 747.30469 C 514.39931 748.17799 513.56087 748.9094 512.41406 749.49805 C 511.82327 749.80129 511.25426 749.9611 510.70703 749.97852 C 510.16578 750.00749 509.65752 749.91742 509.18359 749.70703 C 508.71531 749.479 508.28336 749.15132 507.88867 748.72461 C 507.48807 748.28626 507.13154 747.76043 506.81641 747.14648 L 500.38477 734.61719 L 497.29297 736.20508 L 496.95312 735.54492 L 499.60938 733.10547 L 497.01367 728.05078 L 499.02539 725.76562 L 500.0332 725.24805 z M 487.38477 738.85742 C 488.0237 738.85756 488.59099 738.9478 489.08594 739.12695 C 489.74589 739.36607 490.29576 739.75886 490.73633 740.30273 C 491.18453 740.8299 491.54904 741.46535 491.82812 742.20898 L 496.16406 753.76367 C 496.37899 754.33662 496.73586 754.78773 497.23438 755.11523 C 497.74043 755.42599 498.28416 755.61108 498.86328 755.67188 L 495.13477 757.07227 C 494.55564 757.01154 494.01191 756.82643 493.50586 756.51562 C 493.00744 756.18809 492.6506 755.73701 492.43555 755.16406 C 492.12023 755.65792 491.81548 756.16212 491.52148 756.67578 C 491.23971 757.18486 490.90367 757.68001 490.51367 758.16016 C 490.13128 758.62355 489.66981 759.06104 489.12891 759.47266 C 488.6002 759.87971 487.94083 760.2319 487.14844 760.5293 C 486.41702 760.80382 485.70643 760.93174 485.01758 760.91211 C 484.3455 760.89951 483.72433 760.76418 483.1543 760.50586 C 482.59646 760.24235 482.0951 759.86688 481.64844 759.38086 C 481.21397 758.89028 480.87206 758.3165 480.625 757.6582 C 480.32302 756.85364 480.20875 756.06779 480.2832 755.30273 C 480.35779 754.53768 480.57663 753.80337 480.9375 753.09766 C 481.3061 752.37519 481.78217 751.68022 482.36719 751.01562 C 482.94762 750.33881 483.59596 749.69401 484.31055 749.07812 C 485.02054 748.45007 485.76847 747.84862 486.55469 747.27539 C 487.34088 746.70216 488.11016 746.15705 488.86133 745.63867 L 488.42188 744.4668 C 488.10162 743.61346 487.77121 742.9183 487.42969 742.37891 C 487.08817 741.83952 486.72267 741.44106 486.33398 741.18359 C 485.94071 740.91396 485.51577 740.78044 485.05859 740.78516 C 484.60901 740.77256 484.10911 740.86981 483.56055 741.07617 C 483.03635 741.27296 482.59349 741.55778 482.23242 741.92969 C 481.87133 742.30162 481.58756 742.7293 481.37891 743.21094 C 481.17784 743.67582 481.05644 744.18636 481.01562 744.74414 C 480.98237 745.28514 481.02693 745.83115 481.15039 746.38281 L 477.75 747.66016 C 477.54565 746.81898 477.54786 745.99656 477.75977 745.19336 C 477.98503 744.3856 478.36561 743.63669 478.90039 742.94922 C 479.43053 742.24958 480.09201 741.61963 480.88281 741.05859 C 481.68579 740.49297 482.56282 740.03264 483.51367 739.67578 C 484.73272 739.21823 485.80222 738.95597 486.72266 738.88867 C 486.95163 738.86883 487.17179 738.85737 487.38477 738.85742 z M 348.88086 739.20117 C 350.28438 739.1286 351.70552 739.36198 353.14453 739.90039 C 354.57135 740.43429 355.79341 741.16117 356.81055 742.08398 C 357.83989 743.01133 358.63929 744.05507 359.20703 745.21289 C 359.77477 746.37071 360.09218 747.60178 360.16016 748.90625 C 360.24489 750.20308 360.0475 751.49101 359.56836 752.77148 C 359.03902 754.18611 358.29032 755.42907 357.32031 756.49805 C 356.36706 757.55941 355.27433 758.39344 354.04492 759.00391 C 352.82008 759.60216 351.50249 759.94984 350.08984 760.04688 C 348.69395 760.13632 347.28228 759.91483 345.85547 759.38086 C 344.41646 758.84238 343.18623 758.09822 342.16602 757.14648 C 341.14581 756.19472 340.35744 755.12752 339.79883 753.94531 C 339.24478 752.75091 338.93238 751.48576 338.86133 750.15234 C 338.80703 748.81129 339.02669 747.48308 339.51953 746.16602 C 340.03518 744.788 340.76161 743.58728 341.70117 742.5625 C 342.65749 741.53008 343.74326 740.7262 344.95898 740.15234 C 346.1747 739.57846 347.4819 739.26159 348.88086 739.20117 z M 446.93945 739.43945 L 451.56445 769.2793 L 447.62695 769.88867 L 443.17578 741.16992 L 445.80078 739.61719 L 446.93945 739.43945 z M 462.08203 739.71875 L 463.72266 746.31445 L 468.04492 745.23828 L 468.45508 746.88672 L 464.13477 747.96289 L 467.53516 761.62695 C 467.60747 761.91757 467.72659 762.17677 467.89062 762.4043 C 468.06725 762.6288 468.26814 762.8136 468.49219 762.95898 C 468.72879 763.10135 468.98646 763.1991 469.26758 763.25 C 469.54545 763.2883 469.83543 763.26895 470.13867 763.19336 C 470.56828 763.08652 470.93408 762.88109 471.23438 762.57812 C 471.5347 762.27526 471.77814 761.93272 471.96484 761.55078 L 473.0918 761.95508 C 472.78442 762.98427 472.27229 763.86303 471.55469 764.5918 C 470.83711 765.32059 469.85246 765.84096 468.60156 766.15234 C 467.95718 766.31285 467.36685 766.33856 466.83008 766.23047 C 466.29648 766.13522 465.82354 765.93224 465.41016 765.61914 C 465.00625 765.29032 464.65991 764.87276 464.37305 764.36719 C 464.08303 763.84899 463.8542 763.25562 463.6875 762.58594 L 460.28711 748.91992 L 456.91211 749.75977 L 456.73438 749.03906 L 459.87695 747.27148 L 458.50391 741.75586 L 460.98242 739.99219 L 462.08203 739.71875 z M 350.74023 740.74023 C 350.40418 740.71875 350.05449 740.74491 349.69336 740.81836 C 348.97566 740.95291 348.27574 741.24801 347.5918 741.70117 C 346.92005 742.15885 346.29214 742.75698 345.70898 743.49805 C 345.13039 744.22692 344.66582 745.06099 344.31445 746 C 343.80337 747.36585 343.46359 748.69994 343.29688 750 C 343.14237 751.30462 343.17304 752.50403 343.38867 753.59961 C 343.61653 754.69975 344.02855 755.65945 344.625 756.48047 C 345.23821 757.29382 346.05765 757.89207 347.08203 758.27539 C 347.81373 758.54918 348.55543 758.61271 349.30664 758.46289 C 350.05785 758.31297 350.77096 758.00302 351.44727 757.5332 C 352.12814 757.05116 352.74788 756.4338 353.30664 755.68359 C 353.86541 754.93341 354.3205 754.0894 354.67188 753.15039 C 355.17839 751.79674 355.53712 750.48444 355.74805 749.21484 C 355.95897 747.94522 355.96729 746.77349 355.77148 745.69922 C 355.57565 744.62495 355.15046 743.68008 354.49609 742.86523 C 353.8463 742.03817 352.91824 741.39902 351.71094 740.94727 C 351.39997 740.83086 351.07628 740.76171 350.74023 740.74023 z M 373.25977 746.22266 L 374.36719 746.46484 L 373.50781 750.41406 C 374.97882 749.34808 376.42249 748.63005 377.83594 748.25781 C 379.25215 747.87283 380.61527 747.82247 381.92578 748.10742 C 382.61285 748.25684 383.21547 748.54786 383.73438 748.98047 C 384.26598 749.41587 384.69627 749.94887 385.02539 750.58008 C 385.35451 751.21128 385.56728 751.91669 385.66406 752.69727 C 385.76359 753.46511 385.72401 754.25795 385.54688 755.07227 L 382.50195 769.08008 L 378.62695 768.23828 L 381.52734 754.89648 C 381.66845 754.24759 381.71559 753.66512 381.66797 753.14844 C 381.62312 752.61903 381.49699 752.15926 381.28906 751.76758 C 381.08119 751.37589 380.80484 751.05503 380.45898 750.80664 C 380.12873 750.54827 379.73344 750.36911 379.27539 750.26953 C 378.86823 750.18109 378.42206 750.15695 377.93359 750.19727 C 377.44512 750.23758 376.9314 750.333 376.39258 750.48242 C 375.86924 750.62176 375.33453 750.8115 374.78906 751.05273 C 374.2436 751.29387 373.70749 751.57845 373.18359 751.9043 L 370.03906 766.37109 L 366.14648 765.52344 L 370.23633 746.70508 L 373.25977 746.22266 z M 489.30664 746.82617 C 488.83433 747.19815 488.35389 747.60264 487.86328 748.03711 C 487.3727 748.47158 486.90428 748.93172 486.46094 749.41797 C 486.01301 749.89205 485.5996 750.38022 485.21875 750.88477 C 484.8379 751.38931 484.52581 751.89673 484.28516 752.4043 C 484.04453 752.91184 483.89073 753.40794 483.82227 753.89258 C 483.75373 754.37721 483.80201 754.83849 483.9668 755.27734 C 484.14066 755.74059 484.39057 756.14761 484.7168 756.49805 C 485.03843 756.83626 485.39948 757.11054 485.79883 757.32227 C 486.19359 757.52182 486.60863 757.64385 487.04297 757.68945 C 487.47275 757.72296 487.88139 757.66788 488.27148 757.52148 C 488.68595 757.36602 489.06171 757.1618 489.39844 756.91016 C 489.73517 756.65869 490.04713 756.37423 490.33203 756.05859 C 490.61235 755.73086 490.88251 755.3804 491.14453 755.00391 C 491.40653 754.62741 491.66725 754.23014 491.92773 753.8125 L 489.30664 746.82617 z M 401.30078 750.90234 C 401.53907 750.90478 401.78086 750.9164 402.02734 750.9375 C 402.68899 750.99419 403.30219 751.09283 403.86523 751.23242 C 404.42828 751.37201 404.97148 751.59415 405.49414 751.90039 C 406.02975 752.20764 406.54813 752.63026 407.05078 753.16992 C 407.55454 753.69661 408.078 754.37642 408.62109 755.20703 L 407.04883 756.38477 C 406.40195 755.08786 405.63883 754.10257 404.75586 753.42578 C 403.887 752.73715 402.92583 752.34784 401.875 752.25781 C 401.30417 752.20893 400.78005 752.23509 400.30078 752.33789 C 399.82265 752.42759 399.40335 752.5812 399.04492 752.79883 C 398.70058 753.00443 398.41767 753.26055 398.19531 753.56836 C 397.98593 753.87712 397.86523 754.21291 397.83398 754.57617 C 397.78283 755.17293 397.90101 755.70692 398.1875 756.17578 C 398.48701 756.64578 398.89444 757.08617 399.4082 757.49609 C 399.92308 757.89304 400.50985 758.26969 401.17188 758.62695 C 401.84687 758.98535 402.52798 759.35017 403.21484 759.72266 C 403.91469 760.09625 404.59355 760.49387 405.25 760.91602 C 405.91946 761.33927 406.506 761.81513 407.00977 762.3418 C 407.51463 762.85551 407.90284 763.43738 408.17383 764.08789 C 408.4578 764.73951 408.56324 765.48026 408.49219 766.31055 C 408.41987 767.15381 408.19687 767.93174 407.82227 768.64453 C 407.44867 769.34437 406.92064 769.93926 406.23828 770.42969 C 405.57001 770.90825 404.74912 771.26389 403.77539 771.49414 C 402.80168 771.72444 401.67303 771.78394 400.38867 771.67383 C 399.80486 771.62394 399.20477 771.52719 398.58984 771.38281 C 397.98787 771.23969 397.3876 771.01194 396.78711 770.69922 C 396.18773 770.37345 395.59722 769.94352 395.01562 769.41016 C 394.43403 768.87681 393.87777 768.19474 393.34766 767.36523 L 395.08789 766.04492 C 395.51011 766.76066 395.92034 767.37674 396.32031 767.89453 C 396.7214 768.39935 397.13706 768.8275 397.56445 769.17773 C 398.00595 769.51613 398.45995 769.7771 398.92773 769.96094 C 399.4096 770.13278 399.93502 770.24213 400.50586 770.29102 L 400.50781 770.29297 C 401.03972 770.33858 401.53846 770.30246 402.00586 770.18555 C 402.47437 770.05578 402.8828 769.86771 403.23047 769.62305 C 403.59111 769.37965 403.87626 769.09073 404.08789 768.75586 C 404.30055 768.40817 404.42478 768.04614 404.45703 767.66992 C 404.50919 767.06016 404.39738 766.51589 404.125 766.03516 C 403.86552 765.55553 403.49941 765.11821 403.02344 764.72461 C 402.56158 764.31912 402.0242 763.94072 401.41406 763.58789 C 400.80395 763.23506 400.18186 762.87388 399.54688 762.50586 C 398.91302 762.12483 398.29318 761.73284 397.6875 761.32812 C 397.08293 760.91041 396.54884 760.43935 396.08398 759.91602 C 395.63213 759.39376 395.27755 758.80758 395.01953 758.1582 C 394.77563 757.49694 394.68966 756.74561 394.76172 755.90234 C 394.8295 755.11099 395.05999 754.39181 395.45508 753.74609 C 395.8513 753.0874 396.36882 752.53758 397.00781 752.0957 C 397.65978 751.65496 398.41201 751.33414 399.26562 751.13281 C 399.90669 750.97218 400.58592 750.89502 401.30078 750.90234 z M 434.82422 751.45117 L 435.70508 771.43164 L 431.76367 771.60547 L 431.59766 767.85938 C 431.27166 768.44722 430.85474 769.00631 430.34375 769.53711 C 429.84578 770.06735 429.2979 770.53332 428.70312 770.9375 C 428.10835 771.34168 427.49222 771.67015 426.85156 771.91992 C 426.21088 772.16962 425.59707 772.30615 425.01172 772.33203 C 424.14016 772.37033 423.31306 772.2444 422.53125 771.95312 C 421.74944 771.66172 421.0599 771.24899 420.46289 770.71484 C 419.8659 770.18072 419.38122 769.54427 419.00977 768.80469 C 418.65132 768.06453 418.45521 767.27131 418.41797 766.42578 L 417.79102 752.20117 L 421.77148 752.02539 L 422.39844 766.25 C 422.42111 766.74431 422.55129 767.2081 422.79102 767.64062 C 423.04465 768.07257 423.38124 768.44255 423.79883 768.75 C 424.21642 769.05743 424.68984 769.29653 425.21875 769.46875 C 425.76013 769.62749 426.33589 769.69298 426.94727 769.66602 C 427.33751 769.64838 427.75072 769.54564 428.18555 769.35742 C 428.6334 769.16819 429.06381 768.92222 429.48047 768.61719 C 429.89654 768.29908 430.27992 767.93557 430.62695 767.5293 C 430.98644 767.10942 431.28471 766.67445 431.52539 766.2207 L 430.88281 751.625 L 434.82422 751.45117 z "
       transform="scale(0.26458333)" />
    <g
       aria-label="blastomussa"
       id="text14"
       style="font-style:normal;font-variant:normal;font-weight:normal;font-stretch:normal;font-size:10.58329999999999949px;line-height:1.25;font-family:'Malayalam MN';-inkscape-font-specification:'Malayalam MN';letter-spacing:2.64583000000000013px;fill:#000000;fill-opacity:1;stroke:none;stroke-width:0.264583">
      <path
         d="m 66.960724,120.42427 0.207302,-0.773 0.184896,-0.2489 2.966003,2.20335 q -0.101334,-0.23621 -0.139852,-0.52232 -0.03544,-0.29027 -0.0068,-0.57152 0.02762,-0.28848 0.11426,-0.55243 0.08972,-0.2681 0.234559,-0.46306 0.274264,-0.3692 0.654722,-0.56938 0.380458,-0.20018 0.804057,-0.23313 0.423599,-0.0329 0.860353,0.0984 0.435687,0.1241 0.825623,0.41377 0.526828,0.39137 0.848612,0.9201 0.324866,0.52458 0.428805,1.10392 0.102873,0.5721 -0.0185,1.15144 -0.121371,0.57934 -0.485002,1.06883 -0.351303,0.4729 -0.786994,0.79943 -0.432609,0.32237 -0.926018,0.45796 z m 6.112643,3.22765 q 0.13322,-0.0234 0.279832,-0.0561 0.149694,-0.0369 0.302351,-0.10371 0.148509,-0.0699 0.294766,-0.18015 0.145191,-0.11745 0.277701,-0.29583 0.218794,-0.29452 0.256487,-0.6399 0.03355,-0.34845 -0.09315,-0.70651 -0.127764,-0.36529 -0.408422,-0.7154 -0.281725,-0.35735 -0.69655,-0.66551 -0.315268,-0.23421 -0.663011,-0.33803 -0.348811,-0.11106 -0.678421,-0.092 -0.330678,0.0118 -0.616317,0.15372 -0.286707,0.13464 -0.477767,0.39183 -0.107856,0.14519 -0.180394,0.32949 -0.06945,0.18015 -0.100628,0.36943 -0.03117,0.18928 -0.02205,0.37631 0.005,0.18395 0.05736,0.33874 z"
         style="font-style:normal;font-variant:normal;font-weight:normal;font-stretch:normal;font-family:'Malayalam MN';-inkscape-font-specification:'Malayalam MN';stroke-width:0.264583;fill:#000000"
         id="path27" />
      <path
         d="m 79.725337,117.28679 -0.757784,0.73287 -5.345608,-5.52737 0.330257,-0.73636 0.219164,-0.21195 z"
         style="font-style:normal;font-variant:normal;font-weight:normal;font-stretch:normal;font-family:'Malayalam MN';-inkscape-font-specification:'Malayalam MN';stroke-width:0.264583;fill:#000000"
         id="path29" />
      <path
         d="m 85.8209,112.43646 q -0.228478,0.0347 -0.453961,-0.0338 -0.22424,-0.0758 -0.364275,-0.27422 -0.07155,0.22126 -0.132928,0.44798 -0.05715,0.22375 -0.158755,0.44724 -0.100361,0.21629 -0.26678,0.4286 -0.162197,0.20932 -0.436641,0.40299 -0.253333,0.17877 -0.519811,0.24032 -0.259277,0.0628 -0.504134,0.0205 -0.240635,-0.0452 -0.460892,-0.18707 -0.216035,-0.14482 -0.376927,-0.37282 -0.196644,-0.27866 -0.244778,-0.57991 -0.04813,-0.30124 0.01971,-0.60843 0.06908,-0.31439 0.227075,-0.62827 0.15501,-0.3181 0.367635,-0.62626 0.209645,-0.31238 0.454055,-0.61134 0.244411,-0.29897 0.480871,-0.57335 l -0.190686,-0.27022 q -0.208562,-0.29556 -0.393799,-0.46843 -0.185237,-0.17287 -0.360308,-0.23275 -0.17805,-0.0641 -0.353137,-0.0164 -0.173844,0.0404 -0.363844,0.17453 -0.181556,0.12812 -0.282905,0.30716 -0.101349,0.17903 -0.133167,0.3849 -0.03057,0.19867 0.0096,0.41697 0.04144,0.21109 0.144225,0.41053 l -0.785333,0.55418 q -0.162867,-0.30251 -0.161577,-0.6323 0.0055,-0.33278 0.141898,-0.65038 0.133406,-0.32183 0.380796,-0.61658 0.251612,-0.29772 0.580945,-0.53012 0.422222,-0.29795 0.768923,-0.4161 0.34372,-0.12239 0.621113,-0.0968 0.277392,0.0256 0.501123,0.19031 0.224973,0.15748 0.40672,0.41503 l 1.883023,2.66845 q 0.140035,0.19844 0.364275,0.27422 0.225483,0.0686 0.453961,0.0338 z m -2.176873,-2.2334 q -0.144065,0.19021 -0.288879,0.40625 -0.144814,0.21603 -0.266286,0.44722 -0.124452,0.22696 -0.220097,0.4589 -0.09564,0.23193 -0.13715,0.45096 -0.0415,0.21903 -0.01918,0.412 0.02232,0.19296 0.129583,0.34496 0.11322,0.16045 0.273633,0.26229 0.157433,0.0976 0.33201,0.13887 0.171598,0.037 0.342957,0.011 0.168379,-0.0303 0.30349,-0.12562 0.143556,-0.1013 0.247629,-0.23166 0.104074,-0.13037 0.181826,-0.2801 0.07477,-0.15397 0.137628,-0.32481 0.06286,-0.17085 0.120994,-0.35735 z"
         style="font-style:normal;font-variant:normal;font-weight:normal;font-stretch:normal;font-family:'Malayalam MN';-inkscape-font-specification:'Malayalam MN';stroke-width:0.264583;fill:#000000"
         id="path31" />
      <path
         d="m 91.405961,109.05246 q 0.192,-0.0896 0.32968,-0.22226 0.135495,-0.13736 0.20668,-0.29033 0.07587,-0.15515 0.08243,-0.31218 0.0044,-0.16172 -0.05899,-0.29752 -0.1027,-0.2201 -0.291569,-0.33156 -0.184187,-0.11364 -0.425818,-0.15486 -0.239134,-0.0481 -0.518854,-0.0487 -0.27972,-6.4e-4 -0.570992,-0.002 -0.293456,-0.006 -0.581916,-0.025 -0.290646,-0.0241 -0.554129,-0.1121 -0.2588,-0.0902 -0.476076,-0.26257 -0.214777,-0.17921 -0.35681,-0.4836 -0.133293,-0.28565 -0.125163,-0.58598 0.0059,-0.305 0.138323,-0.58347 0.137062,-0.28065 0.39088,-0.51884 0.251634,-0.24287 0.607534,-0.40894 0.238829,-0.11144 0.460172,-0.17481 0.221344,-0.0634 0.461729,-0.0615 0.245067,-3e-4 0.524784,0.0859 0.277531,0.0815 0.628735,0.25977 l -0.204815,0.47764 q -0.479195,-0.31814 -0.91688,-0.37623 -0.435187,-0.0649 -0.814502,0.11205 -0.206048,0.0961 -0.350596,0.22632 -0.146734,0.12549 -0.226972,0.27128 -0.07774,0.13892 -0.09336,0.28877 -0.01093,0.14766 0.05025,0.27879 0.100515,0.21541 0.291882,0.32 0.19605,0.10241 0.453915,0.14175 0.255681,0.0347 0.554132,0.0266 0.303135,-0.0103 0.613138,-0.0181 0.314686,-0.01 0.624063,0.005 0.31406,0.0131 0.591592,0.0946 0.275346,0.0768 0.497305,0.24696 0.226641,0.16797 0.366489,0.46767 0.142033,0.30439 0.154195,0.62376 0.01,0.31469 -0.12771,0.61844 -0.13519,0.29688 -0.424599,0.56879 -0.289409,0.2719 -0.753017,0.48823 -0.210731,0.0983 -0.450806,0.17043 -0.235393,0.0699 -0.503875,0.0811 -0.270667,0.007 -0.576296,-0.0618 -0.305629,-0.0684 -0.65215,-0.24885 l 0.224798,-0.53258 q 0.286893,0.16266 0.526962,0.26164 0.237883,0.0943 0.454228,0.1302 0.218842,0.029 0.416146,-3e-4 0.199801,-0.0362 0.405849,-0.13235 z"
         style="font-style:normal;font-variant:normal;font-weight:normal;font-stretch:normal;font-family:'Malayalam MN';-inkscape-font-specification:'Malayalam MN';stroke-width:0.264583;fill:#000000"
         id="path33" />
      <path
         d="m 96.38941,99.924567 0.288465,-0.08137 0.488239,1.730786 1.133965,-0.31988 0.12206,0.4327 -1.133965,0.31988 1.011552,3.58591 q 0.03227,0.1144 0.100117,0.20264 0.07282,0.0868 0.163495,0.14181 0.09565,0.0536 0.207746,0.0703 0.110694,0.0117 0.230059,-0.022 0.1691,-0.0477 0.284508,-0.17153 0.115408,-0.12383 0.184777,-0.27764 l 0.301352,0.0975 q -0.109276,0.41205 -0.38498,0.70996 -0.275704,0.29792 -0.768084,0.43681 -0.25365,0.0716 -0.467898,0.0353 -0.212845,-0.0312 -0.380676,-0.15035 -0.16426,-0.12548 -0.28427,-0.3225 -0.121414,-0.202 -0.195772,-0.4656 l -1.011553,-3.58591 -0.885288,0.24973 -0.05331,-0.189 0.816543,-0.49343 -0.408269,-1.4473 z"
         style="font-style:normal;font-variant:normal;font-weight:normal;font-stretch:normal;font-family:'Malayalam MN';-inkscape-font-specification:'Malayalam MN';stroke-width:0.264583;fill:#000000"
         id="path35" />
      <path
         d="m 106.34354,105.35324 q -0.60699,0.0583 -1.1365,-0.10363 -0.52952,-0.16196 -0.93449,-0.48644 -0.40546,-0.32963 -0.66283,-0.79289 -0.25272,-0.4689 -0.30611,-1.02444 -0.0559,-0.58127 0.10096,-1.11029 0.16147,-0.53466 0.49525,-0.9509 0.33378,-0.41625 0.82227,-0.68123 0.48799,-0.270131 1.09497,-0.328463 0.60184,-0.05784 1.12522,0.09433 0.52853,0.151674 0.93251,0.465864 0.40398,0.3142 0.65522,0.76767 0.25588,0.44782 0.30779,0.98794 0.0573,0.59669 -0.10264,1.14679 -0.15534,0.54445 -0.48763,0.97612 -0.3328,0.42654 -0.8198,0.70695 -0.48235,0.27478 -1.08419,0.33262 z m 0.16353,-0.40507 q 0.30864,-0.0297 0.55051,-0.21384 0.24187,-0.18418 0.40135,-0.46946 0.15898,-0.29043 0.22775,-0.65525 0.0688,-0.36481 0.0307,-0.7609 -0.0549,-0.57097 -0.20055,-1.06054 -0.14569,-0.48957 -0.40247,-0.83867 -0.25678,-0.34911 -0.63198,-0.5259 -0.3757,-0.18194 -0.88495,-0.133 -0.26234,0.0252 -0.49441,0.20326 -0.23258,0.1729 -0.39769,0.45353 -0.15997,0.28014 -0.23903,0.64595 -0.0795,0.36066 -0.0415,0.75674 0.0554,0.57612 0.22212,1.06886 0.1719,0.49224 0.43946,0.8455 0.27271,0.35277 0.62832,0.54182 0.36026,0.18342 0.79235,0.1419 z"
         style="font-style:normal;font-variant:normal;font-weight:normal;font-stretch:normal;font-family:'Malayalam MN';-inkscape-font-specification:'Malayalam MN';stroke-width:0.264583;fill:#000000"
         id="path37" />
      <path
         d="m 114.81232,99.709971 0.29644,0.04423 -0.16168,1.083536 q 0.23136,-0.18492 0.51078,-0.34177 0.28018,-0.16196 0.56807,-0.27052 0.28866,-0.11367 0.5674,-0.16091 0.27874,-0.0472 0.51896,-0.0114 0.22999,0.0343 0.4529,0.15117 0.22801,0.11763 0.40523,0.29559 0.18232,0.17872 0.29493,0.40452 0.11847,0.22145 0.12863,0.46853 0.1621,-0.21093 0.41672,-0.37671 0.26051,-0.17012 0.55862,-0.27716 0.29811,-0.10703 0.61774,-0.14816 0.32474,-0.0404 0.62118,0.004 0.29644,0.0442 0.53216,0.21525 0.2416,0.16668 0.40226,0.42054 0.16143,0.24876 0.22888,0.56709 0.0682,0.31321 0.0179,0.65054 l -0.55062,3.69018 -1.03754,-0.15482 0.52927,-3.54706 q 0.0328,-0.21978 -0.0149,-0.42544 -0.0418,-0.21 -0.14747,-0.37729 -0.10566,-0.16729 -0.26647,-0.2801 -0.1557,-0.11206 -0.34481,-0.14028 -0.21466,-0.032 -0.4487,-0.004 -0.22816,0.0234 -0.44274,0.0959 -0.21459,0.0725 -0.39873,0.18608 -0.18338,0.10848 -0.30337,0.24732 l -0.57961,3.88439 -1.03754,-0.15481 0.52927,-3.54707 q 0.0328,-0.21977 -0.0149,-0.42543 -0.0469,-0.21077 -0.15258,-0.37806 -0.10566,-0.16728 -0.26647,-0.2801 -0.16081,-0.11282 -0.34992,-0.14104 -0.19933,-0.0297 -0.42315,-4.4e-4 -0.2187,0.0301 -0.4384,0.10178 -0.21458,0.0725 -0.40895,0.18455 -0.1936,0.10696 -0.32816,0.2384 l -0.5796,3.88439 -1.04266,-0.15558 0.75196,-5.039485 z"
         style="font-style:normal;font-variant:normal;font-weight:normal;font-stretch:normal;font-family:'Malayalam MN';-inkscape-font-specification:'Malayalam MN';stroke-width:0.264583;fill:#000000"
         id="path39" />
      <path
         d="m 128.53497,103.03286 -1.43064,3.48497 q -0.0746,0.18166 -0.06,0.37756 0.0193,0.19786 0.11846,0.37821 0.0991,0.18035 0.26092,0.33056 0.16852,0.14738 0.39321,0.23962 0.14341,0.0589 0.33146,0.0635 0.19283,0.007 0.39376,-0.0339 0.20289,-0.0452 0.39562,-0.13365 0.19947,-0.0913 0.36181,-0.21458 l 1.46792,-3.5758 0.96566,0.39641 -2.00957,4.89523 -0.96565,-0.39642 0.37679,-0.91785 q -0.21542,0.15735 -0.48796,0.26333 -0.26776,0.10794 -0.54935,0.15434 -0.28159,0.0464 -0.55398,0.0295 -0.27239,-0.0168 -0.48751,-0.10516 -0.32029,-0.13149 -0.55328,-0.36679 -0.23299,-0.2353 -0.35894,-0.52721 -0.12596,-0.2919 -0.13643,-0.6202 -0.006,-0.32633 0.12187,-0.63706 l 1.43064,-3.48498 z"
         style="font-style:normal;font-variant:normal;font-weight:normal;font-stretch:normal;font-family:'Malayalam MN';-inkscape-font-specification:'Malayalam MN';stroke-width:0.264583;fill:#000000"
         id="path41" />
      <path
         d="m 135.16499,112.04081 q 0.17784,0.11516 0.36336,0.16143 0.18833,0.0419 0.35576,0.0211 0.17176,-0.0181 0.30833,-0.0958 0.13938,-0.0821 0.22083,-0.20792 0.13202,-0.20386 0.12624,-0.42309 -0.001,-0.21642 -0.0948,-0.44308 -0.0862,-0.22819 -0.23411,-0.46559 -0.14794,-0.2374 -0.30174,-0.48476 -0.15099,-0.25169 -0.28769,-0.50644 -0.13389,-0.25909 -0.19912,-0.52913 -0.0609,-0.26723 -0.0302,-0.54284 0.0379,-0.27715 0.22045,-0.55909 0.17135,-0.26459 0.43019,-0.41711 0.26165,-0.15686 0.56791,-0.19248 0.31061,-0.0328 0.6472,0.0559 0.3394,0.0844 0.66905,0.29782 0.22122,0.14326 0.39241,0.29721 0.17119,0.15396 0.29718,0.35869 0.13034,0.20753 0.20578,0.49033 0.0782,0.27847 0.11357,0.67074 l -0.51351,0.0799 q 0.0153,-0.57498 -0.16782,-0.97675 -0.17595,-0.4033 -0.52729,-0.63082 -0.19085,-0.12359 -0.3779,-0.177 -0.18424,-0.0577 -0.35039,-0.0484 -0.159,0.008 -0.29429,0.0742 -0.13094,0.0691 -0.20959,0.19057 -0.12921,0.19952 -0.11628,0.41722 0.0173,0.22051 0.1208,0.45994 0.10634,0.23509 0.27162,0.48372 0.16962,0.25145 0.34077,0.51004 0.17549,0.2614 0.32673,0.53173 0.15558,0.27313 0.23383,0.55159 0.081,0.27413 0.0547,0.55255 -0.0221,0.28124 -0.20182,0.55884 -0.18258,0.28194 -0.44679,0.46177 -0.2614,0.17549 -0.59191,0.22003 -0.32337,0.043 -0.70743,-0.0579 -0.38405,-0.10095 -0.81347,-0.37904 -0.19519,-0.1264 -0.38373,-0.29159 -0.1842,-0.16238 -0.33623,-0.38396 -0.14921,-0.22592 -0.25348,-0.52124 -0.10427,-0.29531 -0.13527,-0.68478 l 0.57069,-0.0922 q 0.0144,0.32948 0.058,0.58547 0.0464,0.25166 0.13076,0.45407 0.0915,0.20089 0.22113,0.35253 0.13674,0.15011 0.32759,0.27371 z"
         style="font-style:normal;font-variant:normal;font-weight:normal;font-stretch:normal;font-family:'Malayalam MN';-inkscape-font-specification:'Malayalam MN';stroke-width:0.264583;fill:#000000"
         id="path43" />
      <path
         d="m 141.31814,116.81027 q 0.1556,0.1438 0.33052,0.22101 0.17843,0.0734 0.34696,0.0814 0.17233,0.0115 0.32016,-0.0419 0.15133,-0.0572 0.25304,-0.16723 0.16484,-0.17837 0.19651,-0.39538 0.0355,-0.21349 -0.0179,-0.45275 -0.046,-0.23954 -0.15131,-0.49868 -0.1053,-0.25915 -0.21468,-0.5291 -0.10587,-0.27375 -0.19714,-0.54808 -0.0878,-0.27812 -0.106,-0.55533 -0.0145,-0.2737 0.0628,-0.54004 0.0846,-0.26663 0.31254,-0.51332 0.21394,-0.2315 0.495,-0.33767 0.28456,-0.10995 0.59241,-0.0928 0.31165,0.0206 0.6282,0.16538 0.32005,0.14098 0.60848,0.40753 0.19356,0.17887 0.336,0.35975 0.14243,0.18089 0.23169,0.4041 0.093,0.22671 0.11917,0.51824 0.0296,0.28772 -0.002,0.68028 l -0.51962,-0.009 q 0.11307,-0.56396 0.001,-0.99107 -0.10462,-0.42739 -0.41203,-0.71147 -0.16699,-0.15432 -0.3422,-0.23884 -0.1717,-0.0883 -0.33701,-0.10739 -0.15801,-0.0194 -0.30262,0.0229 -0.14081,0.0458 -0.23902,0.15204 -0.16133,0.17458 -0.1857,0.3913 -0.0206,0.22022 0.0406,0.47379 0.0647,0.24978 0.18518,0.52295 0.12428,0.27668 0.24884,0.56067 0.12836,0.28749 0.2313,0.57964 0.10673,0.29566 0.13636,0.58338 0.0331,0.28393 -0.0403,0.55379 -0.0697,0.27335 -0.29414,0.51625 -0.22797,0.24668 -0.51897,0.37883 -0.28749,0.12836 -0.62076,0.1159 -0.32597,-0.0127 -0.68719,-0.17769 -0.36122,-0.16494 -0.73695,-0.51216 -0.17078,-0.15783 -0.3284,-0.35274 -0.15382,-0.19141 -0.26584,-0.43566 -0.10852,-0.24805 -0.16092,-0.55682 -0.0524,-0.30877 -0.0165,-0.69782 l 0.57805,0.006 q -0.042,0.32712 -0.0427,0.58679 0.003,0.25588 0.0514,0.46971 0.0559,0.21356 0.1578,0.38507 0.10914,0.17123 0.27613,0.32555 z"
         style="font-style:normal;font-variant:normal;font-weight:normal;font-stretch:normal;font-family:'Malayalam MN';-inkscape-font-specification:'Malayalam MN';stroke-width:0.264583;fill:#000000"
         id="path45" />
      <path
         d="m 147.38028,124.07289 q -0.042,-0.22726 0.0194,-0.45481 0.0686,-0.22653 0.26254,-0.37278 -0.22342,-0.0645 -0.45198,-0.11866 -0.22544,-0.05 -0.45204,-0.1445 -0.21936,-0.0935 -0.43684,-0.25306 -0.21436,-0.15548 -0.41663,-0.42365 -0.18671,-0.24754 -0.25667,-0.51193 -0.071,-0.25716 -0.0365,-0.50323 0.0376,-0.24195 0.17237,-0.46659 0.13789,-0.22052 0.36067,-0.38856 0.2723,-0.20537 0.57187,-0.26303 0.29956,-0.0577 0.60875,4.1e-4 0.31642,0.0591 0.63514,0.20705 0.32286,0.14485 0.6376,0.3476 0.31887,0.19963 0.62544,0.43445 0.30656,0.23481 0.5883,0.46245 l 0.26404,-0.19915 q 0.2888,-0.21783 0.45571,-0.40845 0.16691,-0.19063 0.22121,-0.36751 0.0584,-0.17999 0.005,-0.35348 -0.0459,-0.17247 -0.18598,-0.35813 -0.1338,-0.1774 -0.31596,-0.27302 -0.18216,-0.0956 -0.38894,-0.1209 -0.19954,-0.0243 -0.41645,0.0228 -0.20968,0.0481 -0.40575,0.15717 l -0.57879,-0.76737 q 0.29718,-0.17238 0.62685,-0.18154 0.33279,-0.005 0.65456,0.12121 0.32589,0.12314 0.62833,0.36106 0.30555,0.24205 0.54827,0.56385 0.31118,0.41257 0.44027,0.75535 0.13321,0.33967 0.1164,0.61773 -0.0168,0.27807 -0.17432,0.50691 -0.15027,0.22985 -0.40194,0.41967 l -2.60742,1.96665 q -0.1939,0.14626 -0.26253,0.37279 -0.0614,0.22754 -0.0194,0.4548 z m 2.16327,-2.24657 q -0.19468,-0.13796 -0.4152,-0.27586 -0.22051,-0.13789 -0.45543,-0.25198 -0.2308,-0.11719 -0.46565,-0.20544 -0.23485,-0.0882 -0.45509,-0.12278 -0.22023,-0.0345 -0.41239,-0.006 -0.19216,0.0284 -0.34068,0.14046 -0.15678,0.11824 -0.25349,0.2818 -0.0926,0.16045 -0.12827,0.33625 -0.0316,0.17269 -10e-5,0.34313 0.0356,0.16734 0.13517,0.29936 0.1058,0.14027 0.2394,0.24016 0.13359,0.0999 0.28572,0.17286 0.15625,0.0699 0.32901,0.12726 0.17275,0.0574 0.361,0.10961 z"
         style="font-style:normal;font-variant:normal;font-weight:normal;font-stretch:normal;font-family:'Malayalam MN';-inkscape-font-specification:'Malayalam MN';stroke-width:0.264583;fill:#000000"
         id="path47" />
    </g>
    <text
       xml:space="preserve"
       id="text21"
       style="fill:black;fill-opacity:1;line-height:1.25;stroke:none;font-family:sans-serif;font-style:normal;font-weight:normal;font-size:10.58333333000000032px;white-space:pre;shape-inside:url(#rect23);" />
    <g
       id="g4424">
      <g
         aria-label="IT Consultation"
         id="text52"
         style="font-style:normal;font-variant:normal;font-weight:normal;font-stretch:normal;font-size:10.58329999999999949px;line-height:1.25;font-family:'Malayalam MN';-inkscape-font-specification:'Malayalam MN';letter-spacing:1.32292000000000010px;fill:#ffffff;fill-opacity:1;stroke:none;stroke-width:0.264583" />
    </g>
    <path
       id="path950"
       style="fill:#000000;stroke:#000000;stroke-width:3;stroke-linecap:butt;stroke-linejoin:miter;stroke-miterlimit:4;stroke-dasharray:none;stroke-dashoffset:0;stroke-opacity:1"
       d="M 423.52613 531.58645 L 437.50549 424.35224 "
       transform="scale(0.26458333)" />
    <path
       id="path4155"
       style="fill:none;stroke:#000000;stroke-width:3;stroke-linecap:butt;stroke-linejoin:miter;stroke-miterlimit:4;stroke-dasharray:none;stroke-dashoffset:0;stroke-opacity:1"
       d="M 398.59548 722.82667 L 414.00961 604.58653 "
       transform="scale(0.26458333)" />
    <path
       id="path4153"
       style="fill:#000000;stroke:#000000;stroke-width:3;stroke-linecap:butt;stroke-linejoin:miter;stroke-miterlimit:4;stroke-dasharray:none;stroke-dashoffset:0;stroke-opacity:1"
       d="M 428.84912 547.42545 L 475.46797 434.47268 "
       transform="scale(0.26458333)" />
    <path
       id="path4137"
       style="fill:none;stroke:#000000;stroke-width:3;stroke-linecap:butt;stroke-linejoin:miter;stroke-miterlimit:4;stroke-dasharray:none;stroke-dashoffset:0;stroke-opacity:1"
       d="M 360.63295 712.70623 L 401.20919 614.3942 "
       transform="scale(0.26458333)" />
    <path
       id="path4135"
       style="fill:#000000;stroke:#000000;stroke-width:3;stroke-linecap:butt;stroke-linejoin:miter;stroke-miterlimit:4;stroke-dasharray:none;stroke-dashoffset:0;stroke-opacity:1"
       d="M 431.6651 555.79986 L 509.51758 454.07373 "
       transform="scale(0.26458333)" />
    <path
       id="path4119"
       style="fill:none;stroke:#000000;stroke-width:3;stroke-linecap:butt;stroke-linejoin:miter;stroke-miterlimit:4;stroke-dasharray:none;stroke-dashoffset:0;stroke-opacity:1"
       d="M 326.58338 693.10518 L 385.61874 615.96644 "
       transform="scale(0.26458333)" />
    <path
       id="path4117"
       style="fill:#000000;stroke:#000000;stroke-width:3;stroke-linecap:butt;stroke-linejoin:miter;stroke-miterlimit:4;stroke-dasharray:none;stroke-dashoffset:0;stroke-opacity:1"
       d="M 439.76918 556.88026 L 537.33388 481.81954 "
       transform="scale(0.26458333)" />
    <path
       id="path4101"
       style="fill:none;stroke:#000000;stroke-width:3;stroke-linecap:butt;stroke-linejoin:miter;stroke-miterlimit:4;stroke-dasharray:none;stroke-dashoffset:0;stroke-opacity:1"
       d="M 298.76708 665.35933 L 392.82803 592.99413 "
       transform="scale(0.26458333)" />
    <path
       id="path4099"
       style="fill:#000000;stroke:#000000;stroke-width:3;stroke-linecap:butt;stroke-linejoin:miter;stroke-miterlimit:4;stroke-dasharray:none;stroke-dashoffset:0;stroke-opacity:1"
       d="M 459.45455 556.37778 L 557.02118 515.81934 "
       transform="scale(0.26458333)" />
    <path
       id="path4087"
       style="fill:none;stroke:#000000;stroke-width:3;stroke-linecap:butt;stroke-linejoin:miter;stroke-miterlimit:4;stroke-dasharray:none;stroke-dashoffset:0;stroke-opacity:1"
       d="M 279.07978 631.35957 L 393.84521 583.65159 "
       transform="scale(0.26458333)" />
    <path
       id="path4085"
       style="fill:none;stroke:#000000;stroke-width:3;stroke-linecap:butt;stroke-linejoin:miter;stroke-miterlimit:4;stroke-dasharray:none;stroke-dashoffset:0;stroke-opacity:1"
       d="M 463.38439 567.56263 L 567.23788 553.75608 "
       transform="scale(0.26458333)" />
    <path
       id="path4069"
       style="fill:none;stroke:#000000;stroke-width:3;stroke-linecap:butt;stroke-linejoin:miter;stroke-miterlimit:4;stroke-dasharray:none;stroke-dashoffset:0;stroke-opacity:1"
       d="M 268.86308 593.42283 L 385.51151 577.91525 "
       transform="scale(0.26458333)" />
    <path
       id="path4067"
       style="fill:none;stroke:#000000;stroke-width:3;stroke-linecap:butt;stroke-linejoin:miter;stroke-miterlimit:4;stroke-dasharray:none;stroke-dashoffset:0;stroke-opacity:1"
       d="M 441.96247 583.45861 L 557.16726 631.00694 "
       transform="scale(0.26458333)" />
    <path
       id="path4051"
       style="fill:none;stroke:#000000;stroke-width:3;stroke-linecap:butt;stroke-linejoin:miter;stroke-miterlimit:4;stroke-dasharray:none;stroke-dashoffset:0;stroke-opacity:1"
       d="M 278.9337 516.17193 L 379.84916 557.82266 "
       transform="scale(0.26458333)" />
    <path
       id="path4049"
       style="fill:none;stroke:#000000;stroke-width:3;stroke-linecap:butt;stroke-linejoin:miter;stroke-miterlimit:4;stroke-dasharray:none;stroke-dashoffset:0;stroke-opacity:1"
       d="M 449.70194 577.71566 L 567.2877 593.04446 "
       transform="scale(0.26458333)" />
    <path
       id="path4033"
       style="fill:none;stroke:#000000;stroke-width:3;stroke-linecap:butt;stroke-linejoin:miter;stroke-miterlimit:4;stroke-dasharray:none;stroke-dashoffset:0;stroke-opacity:1"
       d="M 268.81326 554.13445 L 370.15688 567.3459 "
       transform="scale(0.26458333)" />
    <path
       id="path4031"
       style="fill:none;stroke:#000000;stroke-width:3;stroke-linecap:butt;stroke-linejoin:miter;stroke-miterlimit:4;stroke-dasharray:none;stroke-dashoffset:0;stroke-opacity:1"
       d="M 444.98009 594.19908 L 537.56621 665.05655 "
       transform="scale(0.26458333)" />
    <path
       id="path4015"
       style="fill:none;stroke:#000000;stroke-width:3;stroke-linecap:butt;stroke-linejoin:miter;stroke-miterlimit:4;stroke-dasharray:none;stroke-dashoffset:0;stroke-opacity:1"
       d="M 298.53475 482.12236 L 397.21921 557.64698 "
       transform="scale(0.26458333)" />
    <path
       id="path4013"
       style="fill:none;stroke:#000000;stroke-width:3;stroke-linecap:butt;stroke-linejoin:miter;stroke-miterlimit:4;stroke-dasharray:none;stroke-dashoffset:0;stroke-opacity:1"
       d="M 454.38757 620.82073 L 509.8204 692.87286 "
       transform="scale(0.26458333)" />
    <path
       id="path4001"
       style="fill:none;stroke:#000000;stroke-width:3;stroke-linecap:butt;stroke-linejoin:miter;stroke-miterlimit:4;stroke-dasharray:none;stroke-dashoffset:0;stroke-opacity:1"
       d="M 326.2806 454.30605 L 404.27466 555.68348 "
       transform="scale(0.26458333)" />
    <path
       id="path3999"
       style="fill:none;stroke:#000000;stroke-width:3;stroke-linecap:butt;stroke-linejoin:miter;stroke-miterlimit:4;stroke-dasharray:none;stroke-dashoffset:0;stroke-opacity:1"
       d="M 433.96883 611.88233 L 475.8206 712.56015 "
       transform="scale(0.26458333)" />
    <path
       id="path3983"
       style="fill:none;stroke:#000000;stroke-width:3;stroke-linecap:butt;stroke-linejoin:miter;stroke-miterlimit:4;stroke-dasharray:none;stroke-dashoffset:0;stroke-opacity:1"
       d="M 360.28036 434.61876 L 406.91279 546.79684 "
       transform="scale(0.26458333)" />
    <path
       id="path3979"
       style="fill:#000000;stroke:#000000;stroke-width:3;stroke-linecap:butt;stroke-linejoin:miter;stroke-miterlimit:4;stroke-dasharray:none;stroke-dashoffset:0;stroke-opacity:1"
       d="M 412.14571 529.17355 L 398.21711 424.40205 "
       transform="scale(0.26458333)" />
    <path
       id="path3963"
       style="fill:none;stroke:#000000;stroke-width:3;stroke-linecap:butt;stroke-linejoin:miter;stroke-miterlimit:4;stroke-dasharray:none;stroke-dashoffset:0;stroke-opacity:1"
       d="M 437.88386 722.77686 L 422.01046 603.37664 "
       transform="scale(0.26458333)" />
    <path
       id="path1025"
       style="fill:#000000;stroke:#000000;stroke-width:2.75042;stroke-linecap:butt;stroke-linejoin:miter;stroke-miterlimit:4;stroke-dasharray:none;stroke-dashoffset:0;stroke-opacity:1"
       d="M 418.05048 478.08945 L 418.05048 447.08946 "
       transform="scale(0.26458333)" />
    <path
       id="path4358"
       style="fill:#000000;stroke:#000000;stroke-width:2.75042;stroke-linecap:butt;stroke-linejoin:miter;stroke-miterlimit:4;stroke-dasharray:none;stroke-dashoffset:0;stroke-opacity:1"
       d="M 418.05049 515.29451 L 418.05048 501.08942 "
       transform="scale(0.26458333)" />
    <path
       id="path4340"
       style="fill:none;stroke:#000000;stroke-width:2.75042;stroke-linecap:butt;stroke-linejoin:miter;stroke-miterlimit:4;stroke-dasharray:none;stroke-dashoffset:0;stroke-opacity:1"
       d="M 418.0506 634.08945 L 418.05048 615.08946 "
       transform="scale(0.26458333)" />
    <path
       id="path4338"
       style="fill:none;stroke:#000000;stroke-width:2.75042;stroke-linecap:butt;stroke-linejoin:miter;stroke-miterlimit:4;stroke-dasharray:none;stroke-dashoffset:0;stroke-opacity:1"
       d="M 418.05048 653.08944 L 418.05048 637.08945 "
       transform="scale(0.26458333)" />
    <path
       id="path4336"
       style="fill:none;stroke:#000000;stroke-width:2.75042;stroke-linecap:butt;stroke-linejoin:miter;stroke-miterlimit:4;stroke-dasharray:none;stroke-dashoffset:0;stroke-opacity:1"
       d="M 418.05048 700.08945 L 418.0506 669.08946 "
       transform="scale(0.26458333)" />
    <path
       id="path4334"
       style="fill:#000000;stroke:#000000;stroke-width:2.75042;stroke-linecap:butt;stroke-linejoin:miter;stroke-miterlimit:4;stroke-dasharray:none;stroke-dashoffset:0;stroke-opacity:1"
       d="M 442.76772 481.34351 L 450.79109 451.39982 "
       transform="scale(0.26458333)" />
    <path
       id="path4332"
       style="fill:#000000;stroke:#000000;stroke-width:2.75042;stroke-linecap:butt;stroke-linejoin:miter;stroke-miterlimit:4;stroke-dasharray:none;stroke-dashoffset:0;stroke-opacity:1"
       d="M 431.89731 521.91235 L 436.81489 503.5598 "
       transform="scale(0.26458333)" />
    <path
       id="path4330"
       style="fill:#000000;stroke:#000000;stroke-width:2.75042;stroke-linecap:butt;stroke-linejoin:miter;stroke-miterlimit:4;stroke-dasharray:none;stroke-dashoffset:0;stroke-opacity:1"
       d="M 426.97973 540.26498 L 431.12084 524.81015 "
       transform="scale(0.26458333)" />
    <path
       id="path4326"
       style="fill:none;stroke:#000000;stroke-width:2.75042;stroke-linecap:butt;stroke-linejoin:miter;stroke-miterlimit:4;stroke-dasharray:none;stroke-dashoffset:0;stroke-opacity:1"
       d="M 402.39205 632.02798 L 407.30948 613.67535 "
       transform="scale(0.26458333)" />
    <path
       id="path4324"
       style="fill:none;stroke:#000000;stroke-width:2.75042;stroke-linecap:butt;stroke-linejoin:miter;stroke-miterlimit:4;stroke-dasharray:none;stroke-dashoffset:0;stroke-opacity:1"
       d="M 397.47439 650.38054 L 401.61547 634.92571 "
       transform="scale(0.26458333)" />
    <path
       id="path4322"
       style="fill:none;stroke:#000000;stroke-width:2.75042;stroke-linecap:butt;stroke-linejoin:miter;stroke-miterlimit:4;stroke-dasharray:none;stroke-dashoffset:0;stroke-opacity:1"
       d="M 385.30987 695.77905 L 393.33339 665.8354 "
       transform="scale(0.26458333)" />
    <path
       id="path4320"
       style="fill:#000000;stroke:#000000;stroke-width:2.75042;stroke-linecap:butt;stroke-linejoin:miter;stroke-miterlimit:4;stroke-dasharray:none;stroke-dashoffset:0;stroke-opacity:1"
       d="M 465.8005 490.88402 L 481.3005 464.03724 "
       transform="scale(0.26458333)" />
    <path
       id="path4318"
       style="fill:#000000;stroke:#000000;stroke-width:2.75042;stroke-linecap:butt;stroke-linejoin:miter;stroke-miterlimit:4;stroke-dasharray:none;stroke-dashoffset:0;stroke-opacity:1"
       d="M 444.8005 527.25702 L 454.3005 510.80258 "
       transform="scale(0.26458333)" />
    <path
       id="path4316"
       style="fill:#000000;stroke:#000000;stroke-width:2.75042;stroke-linecap:butt;stroke-linejoin:miter;stroke-miterlimit:4;stroke-dasharray:none;stroke-dashoffset:0;stroke-opacity:1"
       d="M 435.30047 543.71153 L 443.30049 529.85514 "
       transform="scale(0.26458333)" />
    <path
       id="path4300"
       style="fill:none;stroke:#000000;stroke-width:2.75042;stroke-linecap:butt;stroke-linejoin:miter;stroke-miterlimit:4;stroke-dasharray:none;stroke-dashoffset:0;stroke-opacity:1"
       d="M 387.80058 625.98403 L 389.16164 623.62652 "
       transform="scale(0.26458333)" />
    <path
       id="path4298"
       style="fill:none;stroke:#000000;stroke-width:2.75042;stroke-linecap:butt;stroke-linejoin:miter;stroke-miterlimit:4;stroke-dasharray:none;stroke-dashoffset:0;stroke-opacity:1"
       d="M 378.30051 642.43846 L 386.30049 628.58203 "
       transform="scale(0.26458333)" />
    <path
       id="path4296"
       style="fill:none;stroke:#000000;stroke-width:2.75042;stroke-linecap:butt;stroke-linejoin:miter;stroke-miterlimit:4;stroke-dasharray:none;stroke-dashoffset:0;stroke-opacity:1"
       d="M 354.80047 683.14163 L 370.30061 656.29493 "
       transform="scale(0.26458333)" />
    <path
       id="path4294"
       style="fill:#000000;stroke:#000000;stroke-width:2.75042;stroke-linecap:butt;stroke-linejoin:miter;stroke-miterlimit:4;stroke-dasharray:none;stroke-dashoffset:0;stroke-opacity:1"
       d="M 500.75592 525.83943 L 527.6027 510.33944 "
       transform="scale(0.26458333)" />
    <path
       id="path4292"
       style="fill:#000000;stroke:#000000;stroke-width:2.75042;stroke-linecap:butt;stroke-linejoin:miter;stroke-miterlimit:4;stroke-dasharray:none;stroke-dashoffset:0;stroke-opacity:1"
       d="M 464.38288 546.8394 L 480.83735 537.33944 "
       transform="scale(0.26458333)" />
    <path
       id="path4290"
       style="fill:#000000;stroke:#000000;stroke-width:2.75042;stroke-linecap:butt;stroke-linejoin:miter;stroke-miterlimit:4;stroke-dasharray:none;stroke-dashoffset:0;stroke-opacity:1"
       d="M 447.92837 556.33943 L 461.78479 548.33941 "
       transform="scale(0.26458333)" />
    <path
       id="path4278"
       style="fill:none;stroke:#000000;stroke-width:2.75042;stroke-linecap:butt;stroke-linejoin:miter;stroke-miterlimit:4;stroke-dasharray:none;stroke-dashoffset:0;stroke-opacity:1"
       d="M 365.65603 603.83955 L 382.11043 594.33944 "
       transform="scale(0.26458333)" />
    <path
       id="path4276"
       style="fill:none;stroke:#000000;stroke-width:2.75042;stroke-linecap:butt;stroke-linejoin:miter;stroke-miterlimit:4;stroke-dasharray:none;stroke-dashoffset:0;stroke-opacity:1"
       d="M 349.20147 613.33946 L 363.0579 605.33941 "
       transform="scale(0.26458333)" />
    <path
       id="path4274"
       style="fill:none;stroke:#000000;stroke-width:2.75042;stroke-linecap:butt;stroke-linejoin:miter;stroke-miterlimit:4;stroke-dasharray:none;stroke-dashoffset:0;stroke-opacity:1"
       d="M 308.49827 636.83943 L 335.34512 621.33955 "
       transform="scale(0.26458333)" />
    <path
       id="path4272"
       style="fill:#000000;stroke:#000000;stroke-width:2.75042;stroke-linecap:butt;stroke-linejoin:miter;stroke-miterlimit:4;stroke-dasharray:none;stroke-dashoffset:0;stroke-opacity:1"
       d="M 485.57919 506.06075 L 507.4995 484.14043 "
       transform="scale(0.26458333)" />
    <path
       id="path4270"
       style="fill:#000000;stroke:#000000;stroke-width:2.75042;stroke-linecap:butt;stroke-linejoin:miter;stroke-miterlimit:4;stroke-dasharray:none;stroke-dashoffset:0;stroke-opacity:1"
       d="M 455.88072 535.75918 L 469.31577 522.32421 "
       transform="scale(0.26458333)" />
    <path
       id="path4268"
       style="fill:#000000;stroke:#000000;stroke-width:2.75042;stroke-linecap:butt;stroke-linejoin:miter;stroke-miterlimit:4;stroke-dasharray:none;stroke-dashoffset:0;stroke-opacity:1"
       d="M 442.44567 549.19423 L 453.75938 537.88052 "
       transform="scale(0.26458333)" />
    <path
       id="path4252"
       style="fill:none;stroke:#000000;stroke-width:2.75042;stroke-linecap:butt;stroke-linejoin:miter;stroke-miterlimit:4;stroke-dasharray:none;stroke-dashoffset:0;stroke-opacity:1"
       d="M 375.27061 616.36947 L 388.70555 602.93435 "
       transform="scale(0.26458333)" />
    <path
       id="path4250"
       style="fill:none;stroke:#000000;stroke-width:2.75042;stroke-linecap:butt;stroke-linejoin:miter;stroke-miterlimit:4;stroke-dasharray:none;stroke-dashoffset:0;stroke-opacity:1"
       d="M 361.83553 629.80445 L 373.1492 618.4907 "
       transform="scale(0.26458333)" />
    <path
       id="path4248"
       style="fill:none;stroke:#000000;stroke-width:2.75042;stroke-linecap:butt;stroke-linejoin:miter;stroke-miterlimit:4;stroke-dasharray:none;stroke-dashoffset:0;stroke-opacity:1"
       d="M 328.60146 663.03844 L 350.52189 641.11824 "
       transform="scale(0.26458333)" />
    <path
       id="path4246"
       style="fill:#000000;stroke:#000000;stroke-width:2.75042;stroke-linecap:butt;stroke-linejoin:miter;stroke-miterlimit:4;stroke-dasharray:none;stroke-dashoffset:0;stroke-opacity:1"
       d="M 510.29643 548.87221 L 540.24011 540.84884 "
       transform="scale(0.26458333)" />
    <path
       id="path4244"
       style="fill:#000000;stroke:#000000;stroke-width:2.75042;stroke-linecap:butt;stroke-linejoin:miter;stroke-miterlimit:4;stroke-dasharray:none;stroke-dashoffset:0;stroke-opacity:1"
       d="M 476.29254 557.98353 L 488.08014 554.82508 "
       transform="scale(0.26458333)" />
    <path
       id="path4242"
       style="fill:#000000;stroke:#000000;stroke-width:2.75042;stroke-linecap:butt;stroke-linejoin:miter;stroke-miterlimit:4;stroke-dasharray:none;stroke-dashoffset:0;stroke-opacity:1"
       d="M 469.72758 559.74259 L 476.29254 557.98353 "
       transform="scale(0.26458333)" />
    <path
       id="path4228"
       style="fill:none;stroke:#000000;stroke-width:2.75042;stroke-linecap:butt;stroke-linejoin:miter;stroke-miterlimit:4;stroke-dasharray:none;stroke-dashoffset:0;stroke-opacity:1"
       d="M 359.61199 589.24811 L 377.96455 584.33042 "
       transform="scale(0.26458333)" />
    <path
       id="path4226"
       style="fill:none;stroke:#000000;stroke-width:2.75042;stroke-linecap:butt;stroke-linejoin:miter;stroke-miterlimit:4;stroke-dasharray:none;stroke-dashoffset:0;stroke-opacity:1"
       d="M 341.2594 594.16558 L 356.71419 590.02443 "
       transform="scale(0.26458333)" />
    <path
       id="path4224"
       style="fill:none;stroke:#000000;stroke-width:2.75042;stroke-linecap:butt;stroke-linejoin:miter;stroke-miterlimit:4;stroke-dasharray:none;stroke-dashoffset:0;stroke-opacity:1"
       d="M 295.86089 606.33003 L 325.80457 598.30681 "
       transform="scale(0.26458333)" />
    <path
       id="path4222"
       style="fill:#000000;stroke:#000000;stroke-width:2.75042;stroke-linecap:butt;stroke-linejoin:miter;stroke-miterlimit:4;stroke-dasharray:none;stroke-dashoffset:0;stroke-opacity:1"
       d="M 513.55049 573.58946 L 544.55048 573.58946 "
       transform="scale(0.26458333)" />
    <path
       id="path4220"
       style="fill:#000000;stroke:#000000;stroke-width:2.75042;stroke-linecap:butt;stroke-linejoin:miter;stroke-miterlimit:4;stroke-dasharray:none;stroke-dashoffset:0;stroke-opacity:1"
       d="M 471.55053 573.58942 L 490.55051 573.58946 "
       transform="scale(0.26458333)" />
    <path
       id="path4218"
       style="fill:#000000;stroke:#000000;stroke-width:2.75042;stroke-linecap:butt;stroke-linejoin:miter;stroke-miterlimit:4;stroke-dasharray:none;stroke-dashoffset:0;stroke-opacity:1"
       d="M 455.26144 573.58942 L 468.55053 573.58942 "
       transform="scale(0.26458333)" />
    <path
       id="path4202"
       style="fill:none;stroke:#000000;stroke-width:2.75042;stroke-linecap:butt;stroke-linejoin:miter;stroke-miterlimit:4;stroke-dasharray:none;stroke-dashoffset:0;stroke-opacity:1"
       d="M 357.55049 573.58957 L 376.55048 573.58942 "
       transform="scale(0.26458333)" />
    <path
       id="path4200"
       style="fill:none;stroke:#000000;stroke-width:2.75042;stroke-linecap:butt;stroke-linejoin:miter;stroke-miterlimit:4;stroke-dasharray:none;stroke-dashoffset:0;stroke-opacity:1"
       d="M 338.5505 573.58946 L 354.55049 573.58942 "
       transform="scale(0.26458333)" />
    <path
       id="path4198"
       style="fill:none;stroke:#000000;stroke-width:2.75042;stroke-linecap:butt;stroke-linejoin:miter;stroke-miterlimit:4;stroke-dasharray:none;stroke-dashoffset:0;stroke-opacity:1"
       d="M 291.55049 573.58942 L 322.55048 573.58957 "
       transform="scale(0.26458333)" />
    <path
       id="path4196"
       style="fill:#000000;stroke:#000000;stroke-width:2.75042;stroke-linecap:butt;stroke-linejoin:miter;stroke-miterlimit:4;stroke-dasharray:none;stroke-dashoffset:0;stroke-opacity:1"
       d="M 442.76772 481.34351 L 450.79109 451.39982 "
       transform="scale(0.26458333)" />
    <path
       id="path4194"
       style="fill:#000000;stroke:#000000;stroke-width:2.75042;stroke-linecap:butt;stroke-linejoin:miter;stroke-miterlimit:4;stroke-dasharray:none;stroke-dashoffset:0;stroke-opacity:1"
       d="M 431.89731 521.91235 L 436.81489 503.5598 "
       transform="scale(0.26458333)" />
    <path
       id="path4192"
       style="fill:#000000;stroke:#000000;stroke-width:2.75042;stroke-linecap:butt;stroke-linejoin:miter;stroke-miterlimit:4;stroke-dasharray:none;stroke-dashoffset:0;stroke-opacity:1"
       d="M 426.97973 540.26498 L 431.12084 524.81015 "
       transform="scale(0.26458333)" />
    <path
       id="path4176"
       style="fill:none;stroke:#000000;stroke-width:2.75042;stroke-linecap:butt;stroke-linejoin:miter;stroke-miterlimit:4;stroke-dasharray:none;stroke-dashoffset:0;stroke-opacity:1"
       d="M 402.39205 632.02798 L 407.30948 613.67535 "
       transform="scale(0.26458333)" />
    <path
       id="path4174"
       style="fill:none;stroke:#000000;stroke-width:2.75042;stroke-linecap:butt;stroke-linejoin:miter;stroke-miterlimit:4;stroke-dasharray:none;stroke-dashoffset:0;stroke-opacity:1"
       d="M 397.47439 650.38054 L 401.61547 634.92571 "
       transform="scale(0.26458333)" />
    <path
       id="path4172"
       style="fill:none;stroke:#000000;stroke-width:2.75042;stroke-linecap:butt;stroke-linejoin:miter;stroke-miterlimit:4;stroke-dasharray:none;stroke-dashoffset:0;stroke-opacity:1"
       d="M 385.30987 695.77905 L 393.33339 665.8354 "
       transform="scale(0.26458333)" />
  </g>
</svg>
